<?xml version="1.0" encoding="utf-8"?>
<!-- Generator: Adobe Illustrator 25.0.1, SVG Export Plug-In . SVG Version: 6.00 Build 0)  -->
<svg version="1.1" id="Capa_3" xmlns="http://www.w3.org/2000/svg" xmlns:xlink="http://www.w3.org/1999/xlink" x="0px" y="0px"
	 viewBox="0 0 1920 1080" style="enable-background:new 0 0 1920 1080;" xml:space="preserve">
<style type="text/css">
	.st0{fill:#fd0;}
</style>

<g>
	<polygon class="st0" points="725.57,249.69 703,307.19 739.81,370.96 717.11,347.85 685,353.13 611.67,540.55 827.88,510.73 
		884.85,340.27 846.21,338.38 813.35,370.16 841.42,308.01 890.15,324.19 907.99,269.6 820.72,260.11 757.33,418 783.24,439.26 
		839.19,370.75 807.32,453.72 692.76,462.83 718.17,385.86 748.13,410.44 764.43,368.36 745.82,301.04 784.62,316.14 808.34,259.06 
			"/>
	<g>
		<polygon class="st0" points="1360.39,319.2 1290.58,311.53 1259.15,451.61 1331.41,441.7 1342,396.85 1300,405.74 1312.7,346.26 
			1327.68,347.91 1316.25,388.97 1344.2,387.3 		"/>
		<polygon class="st0" points="1387.27,409.26 1438.24,385.83 1407.95,354.24 1479.9,371.77 1512.75,335.95 1369.14,320.18 
			1362.03,350.24 1405.26,379.57 1351.87,393.17 1340.72,440.43 1460.4,424.03 1500.46,388.73 		"/>
	</g>
	<path class="st0" d="M1016.88,546.93c1.68-51.69-52.57-42.82-75.8-39.68l-102.34,14.97l-24.03,76.4c0,0,96.14-21,117.33-25.45
		c15.29-3.21,21.08,0.65,22.75,6.95c1.9,7.15-5.1,15.8-13.92,22.83c-6.45,5.14-100.56,81.24-125.43,100.89
		c-75.1,59.35-66.45,132.91-66.45,132.91l199.98-83.42l23.79-75.32l-98.71,38.23C882.79,696.07,1014.71,613.49,1016.88,546.93z"/>
	<g>
		<path class="st0" d="M890.02,792.29l-136.7,59.03c0.01,0.02,0.01,0.04,0.02,0.06c20.18,61.91,89.25,70.07,90.29,70.19
			l284.93-154.61l22.06-87.2L890.02,792.29z"/>
	</g>
	<polygon class="st0" points="1450.49,432.75 1358.01,446.27 1319.48,487.56 1287.9,456.52 1257.05,461.04 1293.25,515.65 
		1228.93,584.56 1216.62,641.43 1317.17,551.72 1351.71,603.83 1338.15,599.01 1214.19,652.27 1212.03,661.9 1224.59,657.14 
		1210.18,670.2 1207.71,681.22 1227.6,672.56 1204.22,696.83 1196.81,729.93 1434.76,600.8 1352.61,520.1 	"/>
	<path class="st0" d="M793.16,554.3l21.9-2.74l3.53-11.15l-12.67-3.07l14.27-2.13l3.39-10.78l-235.46,34.44l79.52-202.88
		l-70.16,11.56l89.96-62.04l22.56-57.57l-209.04-22.87l-3.32,8.56l13.15,1.32l-15.48,4.69l-4.07,10.47l18.57,1.71l-22.12,7.44
		l-7.94,20.48l82.32,6.57L406.52,568.49l102.15-13.9l52.32-134.21L548,415.92l50.29-4.27L492.85,667.86l306.29-65.97l13.2-41.72
		L793.16,554.3z M595.74,289.02l48.64,3.89l-61.18,45.06l21.58-42.76L595.74,289.02z"/>
	<polygon class="st0" points="1285.38,292.69 1260.69,289.22 1286.61,287.34 1287.82,282.04 1270.23,279.96 1288.99,276.96 
		1293.71,256.41 934.81,233.77 926.41,258.19 1075.04,276.64 994.38,487.93 1038.18,481.96 1104.73,280.34 1283.23,302.03 	"/>
	<g>
		<polygon class="st0" points="932.44,338.22 952.27,274.51 921.93,271.19 902.31,328.23 		"/>
		<polygon class="st0" points="1038.44,336.24 1057.21,286.04 964.4,275.84 923.07,408.35 941.13,424.72 994.2,374.9 960.16,442.58 
			905.09,446.14 893.31,467.08 929.66,347.73 899.63,335.97 840.06,509.07 979.95,489.9 1036.07,342.37 1005.85,339.69 
			969.57,360.67 984.96,319.8 		"/>
	</g>
	<polygon class="st0" points="1203.4,504.86 1179.56,604.64 1134.66,622.23 1216.7,466.93 1150.37,476.64 1081.77,698.3 
		1164.79,663.24 1140.23,760.62 1183.31,737.25 1238.41,497.35 	"/>
	<path class="st0" d="M1137.5,478.52l-89.22,13.05L964.4,746.81l101.77-42.53L1137.5,478.52z M1065,544.9l23.01-5.17l-30.55,96.82
		l8.81,3.54l-51.94,20.62L1065,544.9z"/>
	<path class="st0" d="M1113.78,292.21l-61.71,187.81l33.29-4.56l26.93-73.64l14.35-0.49l-32.19,72.84l46.43-6.33l52.74-166.93
		L1113.78,292.21z M1123.8,370.34l13.87-37.93l18.47,2.15l-15.79,35.73L1123.8,370.34z"/>
	<polygon class="st0" points="1254.46,307.59 1237.01,378.11 1240.23,306.03 1204.4,302.11 1153.64,466.08 1196.86,460.16 
		1219.06,358.33 1217.47,457.03 1217.39,457.36 1248.55,453.07 1281.28,310.53 	"/>
</g>
</svg>
